<svg xmlns="http://www.w3.org/2000/svg" width="1440" height="640" viewBox="0 0 1440 640" aria-hidden="true">
  <g stroke-width="1">
    <path d="M0 40L760 320L1440 40" stroke="#252d27" stroke-opacity="0.55" fill="none"/>
    <path d="M0 110L760 320L1440 110" stroke="#252d27" stroke-opacity="0.55" fill="none"/>
    <path d="M0 180L760 320L1440 180" stroke="#252d27" stroke-opacity="0.55" fill="none"/>
    <path d="M0 250L760 320L1440 250" stroke="#252d27" stroke-opacity="0.55" fill="none"/>
    <path d="M0 320L760 320L1440 320" stroke="#9dff3f" stroke-opacity="0.35" fill="none"/>
    <path d="M0 390L760 320L1440 390" stroke="#252d27" stroke-opacity="0.55" fill="none"/>
    <path d="M0 460L760 320L1440 460" stroke="#252d27" stroke-opacity="0.55" fill="none"/>
    <path d="M0 530L760 320L1440 530" stroke="#252d27" stroke-opacity="0.55" fill="none"/>
    <path d="M0 600L760 320L1440 600" stroke="#252d27" stroke-opacity="0.55" fill="none"/>
  </g>
  <rect x="752" y="312" width="16" height="16" transform="rotate(45 760 320)" fill="#9dff3f" fill-opacity="0.5"/>
</svg>
